<?xml version="1.0" encoding="utf-8"?>
<!-- Generator: Adobe Illustrator 23.0.1, SVG Export Plug-In . SVG Version: 6.00 Build 0)  -->
<svg version="1.1" id="Layer_1" xmlns="http://www.w3.org/2000/svg" xmlns:xlink="http://www.w3.org/1999/xlink" x="0px" y="0px"
	 viewBox="0 0 20 20" style="enable-background:new 0 0 20 20;" xml:space="preserve">
<style type="text/css">
	.st0{fill:none;stroke:#000000;stroke-width:1.7;stroke-miterlimit:10;}
</style>
<path d="M4.82,12.98L4.82,12.98c-0.21,0-0.38-0.17-0.38-0.38V3.85c0-0.2,0.16-0.37,0.37-0.37h0c0.74,0,1.34,0.6,1.34,1.34v6.83
	C6.15,12.38,5.56,12.98,4.82,12.98z"/>
<path d="M6.05,8.84l-1.1-1.3L9.48,3.7c0.12-0.1,0.3-0.09,0.41,0.03l0,0c0.51,0.6,0.43,1.49-0.16,2L6.05,8.84z"/>
<path d="M9.92,12.69L9.92,12.69c0.48-0.56,0.41-1.41-0.16-1.89L6.05,7.66c0,0,0,0,0,0l-1.1,1.3c0,0,0,0,0,0l4.45,3.77
	C9.55,12.87,9.79,12.85,9.92,12.69z"/>
<path class="st0" d="M11.19,4.33C11.4,4.32,11.68,4.32,12,4.37c1.47,0.24,3.54,1.57,3.56,3.72c0.01,2.18-2.12,3.57-3.63,3.77
	c-0.07,0.01-0.15,0.02-0.22,0.02"/>
<path d="M11.57,5.17h-0.32c-0.33,0-0.6-0.27-0.6-0.6V3.99c0-0.28,0.23-0.5,0.5-0.5h0.41c0.02,0,0.04,0.02,0.04,0.04v1.61
	C11.61,5.15,11.59,5.17,11.57,5.17z"/>
<path d="M11.14,16.52L11.14,16.52c-0.23,0-0.42-0.19-0.42-0.42v-4.01c0-0.59,0.48-1.07,1.07-1.07h0.61c0.01,0,0.01,0.01,0.01,0.01
	v4.22C12.4,15.95,11.84,16.52,11.14,16.52z"/>
</svg>
