<svg viewBox="0 -123 512.001 512" xmlns="http://www.w3.org/2000/svg"><path d="m41.910156 30.058594v118.085937h215.074219v-118.085937c0-13.230469-11.335937-23.652344-24.515625-22.46875-55.347656 4.957031-110.695312 4.957031-166.042969 0-13.179687-1.183594-24.515625 9.238281-24.515625 22.46875zm0 0" fill="#ea6789"/><path d="m232.46875 7.589844c-4.378906.390625-8.761719.742187-13.140625 1.070312 7.882813 2.980469 13.65625 11.382813 13.65625 21.398438v118.085937h24v-118.085937c0-13.230469-11.335937-23.652344-24.515625-22.46875zm0 0" fill="#c1466b"/><path d="m256.984375 30.058594v118.085937h215.078125v-118.085937c0-13.230469-11.335938-23.652344-24.515625-22.46875-55.347656 4.957031-110.695313 4.957031-166.042969 0-13.179687-1.183594-24.519531 9.238281-24.519531 22.46875zm0 0" fill="#ea6789"/><path d="m447.546875 7.589844c-4.382813.390625-8.761719.742187-13.144531 1.070312 7.886718 2.980469 13.660156 11.382813 13.660156 21.398438v118.085937h24v-118.085937c0-13.230469-11.335938-23.652344-24.515625-22.46875zm0 0" fill="#c1466b"/><path d="m256 139.464844c-68.996094-15.921875-137.992188-15.433594-206.988281 1.472656v42.355469h413.976562v-42.355469c-68.996093-16.90625-137.992187-17.394531-206.988281-1.472656zm0 0" fill="#804c68"/><path d="m473.777344 79.035156c-16.273438.445313-29.039063 14.210938-29.039063 30.492188v73.765625h-377.476562v-73.765625c0-16.28125-12.765625-30.046875-29.039063-30.492188-16.886718-.460937-30.722656 13.085938-30.722656 29.871094 0 14.242188 9.972656 26.152344 23.3125 29.144531v70.210938c0 5.523437 4.476562 10 10 10h430.375c5.523438 0 10-4.476563 10-10v-70.210938c13.339844-2.992187 23.3125-14.898437 23.3125-29.144531 0-16.785156-13.835938-30.332031-30.722656-29.871094zm0 0" fill="#aa7d95"/><path d="m451.863281 258.046875h-11.664062c-1.484375 0-2.84375-.820313-3.539063-2.132813l-19.871094-37.652343h29.332032l9.597656 34.71875c.707031 2.546875-1.210938 5.066406-3.855469 5.066406zm-391.726562 0h11.664062c1.484375 0 2.84375-.820313 3.539063-2.132813l19.871094-37.652343h-29.332032l-9.597656 34.71875c-.707031 2.546875 1.210938 5.066406 3.855469 5.066406zm0 0" fill="#fed89b"/><path d="m61.773438 233.105469h25.605468l7.832032-14.84375h-29.332032zm0 0" fill="#d69e5b"/><path d="m446.121094 218.261719h-29.332032l7.832032 14.84375h25.605468zm0 0" fill="#d69e5b"/><path d="m313.664062 87.855469c4.140626 0 7.5-3.355469 7.5-7.5v-1.832031h1.832032c4.144531 0 7.5-3.355469 7.5-7.5 0-4.144532-3.355469-7.5-7.5-7.5h-1.832032v-1.832032c0-4.144531-3.359374-7.5-7.5-7.5-4.140624 0-7.5 3.355469-7.5 7.5v1.832032h-1.832031c-4.144531 0-7.5 3.355468-7.5 7.5 0 4.144531 3.355469 7.5 7.5 7.5h1.832031v1.832031c0 4.144531 3.355469 7.5 7.5 7.5zm0 0"/><path d="m415.382812 87.855469c4.144532 0 7.5-3.355469 7.5-7.5v-1.832031h1.835938c4.140625 0 7.5-3.355469 7.5-7.5 0-4.144532-3.359375-7.5-7.5-7.5h-1.835938v-1.832032c0-4.144531-3.355468-7.5-7.5-7.5-4.140624 0-7.5 3.355469-7.5 7.5v1.832032h-1.832031c-4.140625 0-7.5 3.355468-7.5 7.5 0 4.144531 3.359375 7.5 7.5 7.5h1.832031v1.832031c0 4.144531 3.359376 7.5 7.5 7.5zm0 0"/><path d="m98.585938 87.855469c4.144531 0 7.5-3.355469 7.5-7.5v-1.832031h1.835937c4.140625 0 7.5-3.355469 7.5-7.5 0-4.144532-3.359375-7.5-7.5-7.5h-1.835937v-1.832032c0-4.144531-3.355469-7.5-7.5-7.5-4.140626 0-7.5 3.355469-7.5 7.5v1.832032h-1.832032c-4.140625 0-7.5 3.355468-7.5 7.5 0 4.144531 3.359375 7.5 7.5 7.5h1.832032v1.832031c0 4.144531 3.359374 7.5 7.5 7.5zm0 0"/><path d="m200.308594 87.855469c4.140625 0 7.5-3.355469 7.5-7.5v-1.832031h1.832031c4.140625 0 7.5-3.355469 7.5-7.5 0-4.144532-3.359375-7.5-7.5-7.5h-1.832031v-1.832032c0-4.144531-3.359375-7.5-7.5-7.5-4.144532 0-7.5 3.355469-7.5 7.5v1.832032h-1.832032c-4.144531 0-7.5 3.355468-7.5 7.5 0 4.144531 3.355469 7.5 7.5 7.5h1.832032v1.832031c0 4.144531 3.355468 7.5 7.5 7.5zm0 0"/><path d="m511.992188 109.714844c0-.070313 0-.140625.003906-.214844 0-.054688 0-.113281 0-.171875.003906-.140625.003906-.28125.003906-.421875 0-10.179688-4.019531-19.695312-11.3125-26.796875-7.296875-7.097656-16.945312-10.847656-27.113281-10.570313-20.035157.546876-36.335938 17.589844-36.335938 37.988282v18.242187c-57.359375-10.464843-115.378906-9.738281-172.746093 2.15625v-26.234375c0-4.140625-3.359376-7.5-7.5-7.5-4.140626 0-7.5 3.359375-7.5 7.5v26.648438c-58.011719-12.292969-116.707032-13.15625-174.730469-2.570313v-18.242187c0-16.5-10.667969-30.808594-25.351563-35.960938v-43.503906c0-4.28125 1.742188-8.234375 4.90625-11.125 3.144532-2.878906 7.207032-4.25 11.445313-3.875 55.527343 4.96875 111.839843 4.96875 167.378906 0 4.238281-.375 8.300781.996094 11.445313 3.875 3.097656 2.828125 4.828124 6.675781 4.902343 10.855469 0 .089843-.003906.179687-.003906.265625v43.632812c0 4.144532 3.359375 7.5 7.5 7.5 4.144531 0 7.5-3.355468 7.5-7.5v-43.382812c.003906-.082032.003906-.164063.003906-.246094 0-.089844 0-.179688 0-.269531.070313-4.183594 1.804688-8.03125 4.902344-10.863281 3.144531-2.875 7.210937-4.246094 11.441406-3.871094 55.53125 4.976562 111.847657 4.976562 167.382813 0 4.234375-.375 8.296875.996094 11.441406 3.871094 3.164062 2.894531 4.90625 6.847656 4.90625 11.132812v18.964844c0 4.140625 3.359375 7.5 7.5 7.5s7.5-3.359375 7.5-7.5v-18.964844c0-8.425781-3.566406-16.515625-9.78125-22.199219-6.199219-5.667969-14.550781-8.5-22.902344-7.742187-54.648437 4.894531-110.0625 4.894531-164.707031 0-8.363281-.753906-16.707031 2.074218-22.90625 7.742187-.804687.734375-1.566406 1.515625-2.28125 2.328125-.710937-.8125-1.472656-1.589844-2.273437-2.324218-6.203126-5.667969-14.558594-8.5-22.910157-7.742188-54.648437 4.886719-110.0625 4.886719-164.703125 0-8.355468-.757812-16.707031 2.074219-22.90625 7.742188-6.214844 5.683593-9.78125 13.773437-9.78125 22.199218v41.574219c-8.683594.675781-16.765625 4.316406-23.09375 10.472656-7.296875 7.097657-11.316406 16.613281-11.316406 26.792969 0 .140625 0 .28125.00390625.421875 0 .058594 0 .117187.00390625.171875 0 .070312 0 .144531.0039063.214844.3242192 15.289062 9.8789062 28.351562 23.3007812 33.824218v21.152344c0 4.140625 3.359375 7.5 7.5 7.5 4.144531 0 7.5-3.359375 7.5-7.5v-18.417968c4.714844-.113282 9.292969-1.097657 13.621094-2.929688 3.816406-1.613281 5.601562-6.015625 3.984375-9.832031-1.613281-3.8125-6.015625-5.59375-9.828125-3.980469-2.753906 1.164062-5.683594 1.753906-8.707032 1.753906-1.613281 0-3.183593-.171875-4.699218-.496094-.074219-.019531-.152344-.039062-.230469-.054687-9.871094-2.214844-17.101563-11.015625-17.441406-21.089844 0-.011719 0-.019531 0-.03125-.003907-.066406-.003907-.132812-.003907-.199219-.003906-.035156-.003906-.074218-.003906-.113281 0-.042969 0-.089843 0-.132812-.003906-.089844-.003906-.175781-.003906-.261719 0-6.097656 2.40625-11.792969 6.773438-16.046875 4.371093-4.246094 10.148437-6.5 16.242187-6.328125.8125.023438 1.617187.089844 2.40625.203125.210937.042969.421875.074219.636719.101563 10.554687 1.816406 18.703125 11.402343 18.703125 22.691406v27.097656c-.003907.144531-.003907.289062 0 .4375v46.230469c0 4.144531 3.355469 7.5 7.5 7.5h377.476562c4.140625 0 7.5-3.355469 7.5-7.5v-46.230469c.003907-.144531.003907-.292969 0-.4375v-27.097656c0-12.351563 9.753907-22.664063 21.746094-22.996094 6.085937-.167969 11.871094 2.082031 16.242187 6.332031 4.367188 4.25 6.773438 9.945313 6.773438 16.042969 0 .085938 0 .175781-.003906.261719v.136719c0 .035156 0 .074218-.003906.113281 0 .0625 0 .128906-.003907.195312v.03125c-.339843 10.074219-7.570312 18.875-17.441406 21.089844-.078125.015625-.15625.035156-.230469.054687-1.515625.328126-3.085937.496094-4.699218.496094-3.023438 0-5.953126-.589844-8.707032-1.753906-3.8125-1.613281-8.214844.167969-9.828125 3.984375-1.613281 3.8125.167969 8.214844 3.984375 9.828125 4.328125 1.832031 8.90625 2.816406 13.621094 2.929688v61.988281c0 1.378906-1.125 2.5-2.5 2.5h-430.375c-1.378906 0-2.5-1.121094-2.5-2.5v-13.570313c0-4.144531-3.359375-7.5-7.5-7.5s-7.5 3.355469-7.5 7.5v13.570313c0 9.652343 7.851562 17.5 17.5 17.5h15.210938l-6.972657 25.222656c-.964843 3.488281-.261719 7.144531 1.933594 10.027344 2.191406 2.882812 5.527344 4.535156 9.152344 4.535156h11.664062c4.273438 0 8.171875-2.347656 10.171875-6.132813l17.761719-33.652343h312.53125l17.765625 33.65625c1.996094 3.78125 5.894531 6.128906 10.167969 6.128906h11.664062c3.625 0 6.960938-1.652344 9.152344-4.535156 2.195313-2.882813 2.898437-6.539063 1.933594-10.027344l-6.972657-25.222656h15.210938c9.648438 0 17.5-7.847657 17.5-17.5v-64.722657c13.421875-5.472656 22.976562-18.53125 23.304688-33.824218zm-437.230469 66.078125v-32.769531c59.613281-11.253907 119.984375-10 179.550781 3.746093.554688.128907 1.121094.191407 1.6875.191407s1.132812-.0625 1.6875-.191407c.21875-.050781.4375-.097656.65625-.148437.21875-.039063.4375-.089844.652344-.152344 59.140625-13.460938 119.066406-14.617188 178.242187-3.445312v32.769531zm-5.070313 74.753906h-4.957031l6.851563-24.785156h11.1875zm377.574219 0h-4.957031l-13.082032-24.785156h11.1875zm0 0"/></svg>